<?xml version="1.0" standalone="no"?>
<!DOCTYPE svg PUBLIC "-//W3C//DTD SVG 20010904//EN"
 "http://www.w3.org/TR/2001/REC-SVG-20010904/DTD/svg10.dtd">
<svg version="1.0" xmlns="http://www.w3.org/2000/svg"
 width="270.000000pt" height="378.000000pt" viewBox="0 0 270.000000 378.000000"
 preserveAspectRatio="xMidYMid meet">
<metadata>
Created by potrace 1.16, written by Peter Selinger 2001-2019
</metadata>
<g transform="translate(0.000000,378.000000) scale(0.100000,-0.100000)"
fill="#000000" stroke="none">
<path d="M0 3565 l0 -215 1040 0 c572 0 1040 -2 1040 -5 0 -5 -534 -803 -850
-1270 -71 -104 -368 -543 -659 -975 l-531 -785 0 -157 0 -158 1330 0 1330 0 0
218 0 217 -1038 4 c-570 2 -1038 5 -1040 6 -2 1 162 246 363 544 201 298 365
543 365 545 0 2 55 85 123 184 221 325 549 809 871 1286 l316 469 0 153 0 154
-1330 0 -1330 0 0 -215z"/>
</g>
</svg>
